<svg width="35" height="35" viewBox="0 0 35 35" fill="none" xmlns="http://www.w3.org/2000/svg">
<path d="M29.2133 29.1596H5.78516C4.55276 29.1581 3.37125 28.6679 2.49981 27.7965C1.62838 26.925 1.13817 25.7435 1.13672 24.5111V10.4893C1.13817 9.25686 1.62838 8.07535 2.49981 7.20391C3.37125 6.33248 4.55276 5.84227 5.78516 5.84082H29.2133C30.4457 5.84227 31.6272 6.33248 32.4986 7.20391C33.3701 8.07535 33.8603 9.25686 33.8617 10.4893V24.5111C33.8603 25.7435 33.3701 26.925 32.4986 27.7965C31.6272 28.6679 30.4457 29.1581 29.2133 29.1596ZM5.78516 7.48145C4.98743 7.48145 4.22239 7.79834 3.65831 8.36241C3.09424 8.92649 2.77734 9.69154 2.77734 10.4893V24.5111C2.77734 25.3089 3.09424 26.0739 3.65831 26.638C4.22239 27.2021 4.98743 27.5189 5.78516 27.5189H29.2133C30.011 27.5189 30.7761 27.2021 31.3401 26.638C31.9042 26.0739 32.2211 25.3089 32.2211 24.5111V10.4893C32.2211 9.69154 31.9042 8.92649 31.3401 8.36241C30.7761 7.79834 30.011 7.48145 29.2133 7.48145H5.78516Z" fill="white"/>
<path d="M17.5002 20.825C16.4883 20.8266 15.5034 20.4982 14.6948 19.8898L1.92524 10.232C1.83502 10.1687 1.75848 10.0878 1.70021 9.99426C1.64193 9.9007 1.6031 9.79636 1.58605 9.68746C1.569 9.57856 1.57406 9.46734 1.60095 9.36045C1.62784 9.25355 1.67599 9.15317 1.74254 9.0653C1.80909 8.97743 1.89266 8.90387 1.98827 8.84902C2.08387 8.79417 2.18956 8.75915 2.299 8.74605C2.40845 8.73295 2.51941 8.74204 2.62526 8.77278C2.73111 8.80352 2.82968 8.85528 2.91509 8.92496L15.6846 18.5937C16.209 18.9852 16.8459 19.1967 17.5002 19.1967C18.1546 19.1967 18.7915 18.9852 19.3159 18.5937L32.0854 8.92496C32.1708 8.85528 32.2694 8.80352 32.3752 8.77278C32.4811 8.74204 32.592 8.73295 32.7015 8.74605C32.8109 8.75915 32.9166 8.79417 33.0122 8.84902C33.1078 8.90387 33.1914 8.97743 33.2579 9.0653C33.3245 9.15317 33.3726 9.25355 33.3995 9.36045C33.4264 9.46734 33.4315 9.57856 33.4144 9.68746C33.3974 9.79636 33.3586 9.9007 33.3003 9.99426C33.242 10.0878 33.1655 10.1687 33.0752 10.232L20.3057 19.8898C19.4971 20.4982 18.5122 20.8266 17.5002 20.825Z" fill="white"/>
<path d="M2.2805 26.8735C2.11413 26.8737 1.95161 26.8234 1.81452 26.7291C1.67743 26.6348 1.57224 26.5011 1.51291 26.3457C1.45358 26.1902 1.44292 26.0204 1.48234 25.8588C1.52176 25.6971 1.6094 25.5513 1.73363 25.4406L11.7961 16.4664C11.9586 16.3214 12.172 16.2468 12.3894 16.2591C12.6068 16.2714 12.8105 16.3696 12.9555 16.5321C13.1005 16.6945 13.1751 16.9079 13.1628 17.1253C13.1505 17.3428 13.0523 17.5464 12.8899 17.6914L2.82738 26.6656C2.67794 26.8016 2.48252 26.8759 2.2805 26.8735ZM32.7196 26.8735C32.5175 26.8759 32.3221 26.8016 32.1727 26.6656L22.1102 17.6914C21.9477 17.5464 21.8496 17.3428 21.8373 17.1253C21.825 16.9079 21.8995 16.6945 22.0446 16.5321C22.1896 16.3696 22.3932 16.2714 22.6107 16.2591C22.8281 16.2468 23.0415 16.3214 23.2039 16.4664L33.261 25.4406C33.3852 25.5513 33.4728 25.6971 33.5123 25.8588C33.5517 26.0204 33.541 26.1902 33.4817 26.3457C33.4224 26.5011 33.3172 26.6348 33.1801 26.7291C33.043 26.8234 32.8805 26.8737 32.7141 26.8735H32.7196Z" fill="white"/>
</svg>
