<svg width="35" height="42" viewBox="0 0 35 42" fill="none" xmlns="http://www.w3.org/2000/svg">
<g clip-path="url(#clip0_1397_197)">
<path fill-rule="evenodd" clip-rule="evenodd" d="M33.25 17.5C33.25 29.75 17.5 40.25 17.5 40.25C17.5 40.25 1.75 29.75 1.75 17.5C1.75 13.3228 3.40937 9.31677 6.36307 6.36307C9.31677 3.40937 13.3228 1.75 17.5 1.75C21.6772 1.75 25.6832 3.40937 28.6369 6.36307C31.5906 9.31677 33.25 13.3228 33.25 17.5Z" stroke="white" stroke-width="2" stroke-linecap="round" stroke-linejoin="round"/>
<path d="M17.5 22.75C20.3995 22.75 22.75 20.3995 22.75 17.5C22.75 14.6005 20.3995 12.25 17.5 12.25C14.6005 12.25 12.25 14.6005 12.25 17.5C12.25 20.3995 14.6005 22.75 17.5 22.75Z" stroke="white" stroke-width="2" stroke-linecap="round" stroke-linejoin="round"/>
</g>
<defs>
<clipPath id="clip0_1397_197">
<rect width="35" height="42" fill="white"/>
</clipPath>
</defs>
</svg>
