<svg width="121" height="28" viewBox="0 0 121 28" fill="none" xmlns="http://www.w3.org/2000/svg">
<path d="M106.415 1.74805C99.9815 1.74805 94.748 6.98165 94.748 13.4146C94.748 19.8478 99.9815 25.0816 106.415 25.0816C112.848 25.0816 118.081 19.8478 118.081 13.4146C118.081 6.98165 112.848 1.74805 106.415 1.74805ZM109.712 9.11292C109.712 9.16817 109.69 9.22115 109.651 9.26021C109.612 9.29927 109.559 9.32122 109.504 9.32122L108.178 9.32205C107.302 9.32205 107.142 9.66282 107.142 10.3339V11.7262H109.417C109.477 11.7262 109.534 11.752 109.573 11.797C109.613 11.842 109.631 11.9018 109.624 11.9611L109.3 14.4676C109.293 14.5178 109.269 14.5639 109.231 14.5973C109.193 14.6308 109.144 14.6492 109.093 14.6492H107.142V20.8728C107.142 20.9281 107.121 20.981 107.081 21.0201C107.042 21.0592 106.989 21.0811 106.934 21.0811H104.346C104.291 21.0811 104.238 21.0592 104.199 21.0201C104.16 20.981 104.138 20.9281 104.138 20.8728V14.6492H102.181C102.126 14.6492 102.073 14.6272 102.034 14.5882C101.995 14.5491 101.973 14.4961 101.973 14.4409V11.9345C101.973 11.8792 101.995 11.8263 102.034 11.7872C102.073 11.7481 102.126 11.7262 102.181 11.7262H104.138V10.0859C104.138 7.91336 105.453 6.56402 107.57 6.56402C108.48 6.56402 109.284 6.63172 109.531 6.66442C109.581 6.67104 109.627 6.69562 109.66 6.73359C109.694 6.77156 109.712 6.82034 109.712 6.87084V9.11292Z" fill="white"/>
<g clip-path="url(#clip0_1397_173)">
<path d="M10.9999 24.4344C17.075 24.4344 21.9998 19.5096 21.9998 13.4345C21.9998 7.35939 17.075 2.43457 10.9999 2.43457C4.92482 2.43457 0 7.35939 0 13.4345C0 19.5096 4.92482 24.4344 10.9999 24.4344Z" fill="white"/>
<path d="M17.7375 10.3394C17.2576 10.552 16.7485 10.6914 16.2273 10.753C16.7764 10.4246 17.1874 9.90765 17.3836 9.29861C16.8675 9.60486 16.3028 9.82059 15.7139 9.93647C15.4678 9.67403 15.1705 9.46495 14.8403 9.32217C14.5101 9.17939 14.154 9.10596 13.7943 9.10645C12.3425 9.10645 11.165 10.2839 11.165 11.7357C11.165 11.9418 11.1883 12.1424 11.2334 12.335C9.04826 12.2254 7.11076 11.1787 5.81386 9.58744C5.58 9.98872 5.4571 10.445 5.45777 10.9094C5.45777 11.8214 5.92229 12.6265 6.62741 13.0979C6.20985 13.085 5.80147 12.9721 5.43659 12.7687L5.4364 12.802C5.4364 14.076 6.34309 15.1386 7.54567 15.3799C7.31997 15.4415 7.08705 15.4726 6.8531 15.4723C6.68329 15.4723 6.51878 15.456 6.35838 15.4254C6.6929 16.4698 7.66371 17.23 8.81453 17.2514C7.88309 17.9824 6.73281 18.3788 5.54875 18.3769C5.33698 18.3769 5.12717 18.3645 4.92188 18.34C6.12385 19.1128 7.52301 19.523 8.95198 19.5214C13.7882 19.5214 16.433 15.5151 16.433 12.0403C16.433 11.9263 16.4304 11.8128 16.4253 11.7002C16.9403 11.3284 17.3847 10.8676 17.7375 10.3394Z" fill="#A26769"/>
</g>
<g clip-path="url(#clip1_1397_173)">
<path d="M41.5078 15.2409L45.2423 13.0003L41.5078 10.7598V15.2409Z" fill="white"/>
<path d="M43 2C36.9252 2 32 6.92456 32 13C32 19.0754 36.9252 24 43 24C49.0748 24 54 19.0748 54 13C54 6.92525 49.0748 2 43 2ZM48.973 13.4819C48.973 14.5132 48.8534 15.5444 48.8534 15.5444C48.8534 15.5444 48.7365 16.4231 48.379 16.8088C47.9246 17.3161 47.4158 17.3189 47.1821 17.3491C45.5101 17.477 43 17.4811 43 17.4811C43 17.4811 39.8939 17.4509 38.9383 17.3533C38.6722 17.3003 38.0761 17.3154 37.621 16.8088C37.2628 16.4224 37.1466 15.5444 37.1466 15.5444C37.1466 15.5444 37.027 14.5139 37.027 13.4819V12.5153C37.027 11.4841 37.1466 10.4535 37.1466 10.4535C37.1466 10.4535 37.2635 9.57487 37.621 9.18781C38.0754 8.67975 38.5842 8.677 38.8179 8.64813C40.4893 8.51888 42.9973 8.51888 42.9973 8.51888H43.0027C43.0027 8.51888 45.5107 8.51888 47.1821 8.64813C47.4151 8.677 47.9246 8.67975 48.379 9.18713C48.7372 9.57419 48.8534 10.4528 48.8534 10.4528C48.8534 10.4528 48.973 11.4841 48.973 12.5153V13.4819Z" fill="white"/>
</g>
<g clip-path="url(#clip2_1397_173)">
<path d="M79.4671 9.62061C79.3717 9.3734 79.2255 9.14892 79.038 8.96163C78.8505 8.77435 78.6259 8.62841 78.3786 8.53322C78.038 8.40709 77.6784 8.34042 77.3152 8.33613C76.7114 8.30863 76.5303 8.30176 75.0007 8.30176C73.471 8.30176 73.2899 8.30863 72.6861 8.33613C72.3226 8.34029 71.9625 8.40696 71.6216 8.53322C71.3744 8.62867 71.1499 8.77484 70.9626 8.96233C70.7753 9.14981 70.6294 9.37444 70.5342 9.62176C70.4081 9.96229 70.3414 10.322 70.3371 10.6851C70.3096 11.2889 70.3027 11.47 70.3027 12.9997C70.3027 14.5294 70.3096 14.7104 70.3371 15.3143C70.3413 15.6778 70.4079 16.0378 70.5342 16.3787C70.6296 16.626 70.7758 16.8504 70.9633 17.0377C71.1508 17.225 71.3754 17.3709 71.6227 17.4661C71.9633 17.5923 72.3229 17.6589 72.6861 17.6632C73.2899 17.6907 73.471 17.6976 75.0007 17.6976C76.5303 17.6976 76.7114 17.6907 77.3152 17.6632C77.6787 17.6591 78.0388 17.5924 78.3797 17.4661C78.6269 17.3707 78.8514 17.2245 79.0387 17.037C79.226 16.8495 79.3719 16.6249 79.4671 16.3776C79.5932 16.0371 79.6599 15.6774 79.6642 15.3143C79.6917 14.7104 79.6986 14.5294 79.6986 12.9997C79.6986 11.47 79.6917 11.2889 79.6642 10.6851C79.66 10.3216 79.5934 9.96151 79.4671 9.62061ZM75.0007 15.9422C74.4187 15.9422 73.8498 15.7696 73.3659 15.4463C72.882 15.1229 72.5048 14.6634 72.2821 14.1257C72.0594 13.588 72.0012 12.9964 72.1147 12.4256C72.2282 11.8548 72.5085 11.3305 72.92 10.919C73.3315 10.5075 73.8558 10.2273 74.4266 10.1137C74.9974 10.0002 75.589 10.0584 76.1267 10.2812C76.6644 10.5039 77.1239 10.881 77.4473 11.3649C77.7706 11.8488 77.9432 12.4177 77.9432 12.9997C77.9432 13.7801 77.6331 14.5285 77.0813 15.0803C76.5295 15.6322 75.7811 15.9422 75.0007 15.9422ZM78.0589 10.6289C77.9229 10.6289 77.79 10.5886 77.6769 10.5131C77.5639 10.4375 77.4757 10.3302 77.4237 10.2045C77.3717 10.0789 77.3581 9.94068 77.3846 9.80732C77.4111 9.67396 77.4766 9.55146 77.5727 9.45531C77.6689 9.35916 77.7914 9.29368 77.9248 9.26716C78.0581 9.24063 78.1964 9.25424 78.322 9.30628C78.4476 9.35831 78.555 9.44643 78.6305 9.55949C78.7061 9.67255 78.7464 9.80547 78.7464 9.94145C78.7464 10.1238 78.6739 10.2987 78.545 10.4276C78.4161 10.5565 78.2412 10.6289 78.0589 10.6289Z" fill="white"/>
<path d="M74.9999 14.9101C76.0549 14.9101 76.9101 14.0549 76.9101 12.9999C76.9101 11.945 76.0549 11.0898 74.9999 11.0898C73.945 11.0898 73.0898 11.945 73.0898 12.9999C73.0898 14.0549 73.945 14.9101 74.9999 14.9101Z" fill="white"/>
<path d="M75 2C72.8244 2 70.6977 2.64514 68.8887 3.85383C67.0798 5.06253 65.6699 6.78049 64.8373 8.79048C64.0048 10.8005 63.7869 13.0122 64.2114 15.146C64.6358 17.2798 65.6835 19.2398 67.2218 20.7782C68.7602 22.3166 70.7202 23.3642 72.854 23.7886C74.9878 24.2131 77.1995 23.9952 79.2095 23.1627C81.2195 22.3301 82.9375 20.9202 84.1462 19.1113C85.3549 17.3023 86 15.1756 86 13C86 10.0826 84.8411 7.28473 82.7782 5.22183C80.7153 3.15893 77.9174 2 75 2ZM80.6948 15.3627C80.685 15.8378 80.5947 16.3077 80.4278 16.7526C80.2807 17.1331 80.0556 17.4787 79.7672 17.7672C79.4787 18.0556 79.1331 18.2807 78.7526 18.4278C78.3077 18.5947 77.8378 18.685 77.3627 18.6948C76.7508 18.7223 76.556 18.7292 75 18.7292C73.444 18.7292 73.2492 18.7223 72.6373 18.6948C72.1622 18.685 71.6923 18.5947 71.2474 18.4278C70.8669 18.2807 70.5213 18.0556 70.2328 17.7672C69.9444 17.4787 69.7193 17.1331 69.5722 16.7526C69.4053 16.3077 69.315 15.8378 69.3052 15.3627C69.2777 14.7508 69.2708 14.556 69.2708 13C69.2708 11.444 69.2777 11.2492 69.3052 10.6373C69.315 10.1622 69.4053 9.69228 69.5722 9.2474C69.7193 8.86689 69.9444 8.52132 70.2328 8.23284C70.5213 7.94437 70.8669 7.71934 71.2474 7.57219C71.6923 7.40531 72.1622 7.31504 72.6373 7.30521C73.2492 7.27771 73.444 7.27083 75 7.27083C76.556 7.27083 76.7508 7.27771 77.3627 7.30521C77.8378 7.31504 78.3077 7.40531 78.7526 7.57219C79.1331 7.71934 79.4787 7.94437 79.7672 8.23284C80.0556 8.52132 80.2807 8.86689 80.4278 9.2474C80.5947 9.69228 80.685 10.1622 80.6948 10.6373C80.7223 11.2492 80.7292 11.444 80.7292 13C80.7292 14.556 80.7223 14.7508 80.6948 15.3627Z" fill="white"/>
</g>
<defs>
<clipPath id="clip0_1397_173">
<rect width="22" height="22" fill="white" transform="translate(0 2.43457)"/>
</clipPath>
<clipPath id="clip1_1397_173">
<rect width="22" height="22" fill="white" transform="translate(32 2)"/>
</clipPath>
<clipPath id="clip2_1397_173">
<rect width="22" height="22" fill="white" transform="translate(64 2)"/>
</clipPath>
</defs>
</svg>
