<svg width="45" height="45" viewBox="0 0 45 45" fill="none" xmlns="http://www.w3.org/2000/svg">
<path d="M40.0781 35.1562H9.14062C8.71875 35.1562 8.4375 34.875 8.4375 34.4531C8.4375 34.0312 8.71875 33.75 9.14062 33.75H40.0781C40.5 33.75 40.7812 34.0312 40.7812 34.4531C40.7812 34.875 40.5 35.1562 40.0781 35.1562ZM31.6406 24.6094H28.6875C28.2656 24.6094 27.9844 24.3281 27.9844 23.9062C27.9844 23.4844 28.2656 23.2031 28.6875 23.2031H31.6406C32.0625 23.2031 32.3438 23.4844 32.3438 23.9062C32.3438 24.3281 32.0625 24.6094 31.6406 24.6094ZM34.4531 16.875C34.0312 16.875 33.75 16.5938 33.75 16.1719C33.75 15.75 34.0312 15.4688 34.4531 15.4688H40.0781C40.5 15.4688 40.7812 15.75 40.7812 16.1719C40.7812 16.5938 40.5 16.875 40.0781 16.875H34.4531ZM14.7656 16.875H9.14062C8.71875 16.875 8.4375 16.5938 8.4375 16.1719C8.4375 15.75 8.71875 15.4688 9.14062 15.4688H14.7656C15.1875 15.4688 15.4688 15.75 15.4688 16.1719C15.4688 16.5938 15.1875 16.875 14.7656 16.875Z" fill="white"/>
<path d="M37.4066 37.9688H11.8129C10.6879 37.9688 9.70348 37.5469 9.14098 36.7031C8.43785 35.8594 8.1566 34.7344 8.43785 33.75L10.266 24.6094C10.5472 23.3438 11.391 22.3594 12.6566 21.9375L13.3597 21.6562C14.2035 21.375 14.766 20.5312 14.766 19.6875V14.625C14.766 13.6406 15.7504 12.6562 16.8754 12.6562H32.3441C33.4691 12.6562 34.4535 13.6406 34.4535 14.7656V19.8281C34.4535 20.6719 35.016 21.5156 35.8597 21.7969L36.5629 22.0781C37.6879 22.5 38.6722 23.4844 38.9535 24.75L40.7816 33.75C40.9222 34.7344 40.7816 35.8594 40.0785 36.7031C39.3754 37.5469 38.391 37.9688 37.4066 37.9688ZM16.8754 14.0625C16.4535 14.0625 16.1722 14.3438 16.1722 14.7656V19.8281C16.1722 21.375 15.1879 22.6406 13.7816 23.2031L13.0785 23.4844C12.3754 23.7656 11.8129 24.3281 11.6722 25.0312L9.8441 34.0313C9.70348 34.5938 9.8441 35.2969 10.266 35.7188C10.6879 36.1406 11.2504 36.5625 11.8129 36.5625H37.266C37.9691 36.5625 38.5316 36.2812 38.9535 35.8594C39.3754 35.4375 39.516 34.7344 39.3754 34.1719L37.5472 25.0312C37.4066 24.3281 36.8441 23.625 36.141 23.4844L35.4379 23.2031C34.0316 22.7812 33.0472 21.375 33.0472 19.8281V14.7656C33.0472 14.3438 32.766 14.0625 32.3441 14.0625H16.8754Z" fill="white"/>
<path d="M24.6094 30.9375C20.6719 30.9375 17.5781 27.8438 17.5781 23.9062C17.5781 19.9688 20.6719 16.875 24.6094 16.875C28.5469 16.875 31.6406 19.9688 31.6406 23.9062C31.6406 27.8438 28.5469 30.9375 24.6094 30.9375ZM24.6094 18.2812C21.5156 18.2812 18.9844 20.8125 18.9844 23.9062C18.9844 27 21.5156 29.5312 24.6094 29.5312C27.7031 29.5312 30.2344 27 30.2344 23.9062C30.2344 20.8125 27.7031 18.2812 24.6094 18.2812Z" fill="white"/>
<path d="M24.6094 28.125C22.2187 28.125 20.3906 26.2969 20.3906 23.9062C20.3906 21.5156 22.2187 19.6875 24.6094 19.6875C27 19.6875 28.8281 21.5156 28.8281 23.9062C28.8281 26.2969 27 28.125 24.6094 28.125ZM24.6094 21.0938C23.0625 21.0938 21.7969 22.3594 21.7969 23.9062C21.7969 25.4531 23.0625 26.7188 24.6094 26.7188C26.1562 26.7188 27.4219 25.4531 27.4219 23.9062C27.4219 22.3594 26.1562 21.0938 24.6094 21.0938Z" fill="white"/>
<path d="M39.375 21.0938H34.875C34.1719 21.0938 33.4688 20.8125 33.1875 20.1094C33.0469 19.9688 33.0469 19.8281 33.0469 19.6875V14.625C33.0469 14.2031 32.7656 13.9219 32.3438 13.9219H16.875C16.4531 13.9219 16.1719 14.2031 16.1719 14.625V19.6875C16.1719 19.8281 16.1719 19.9688 16.0312 20.1094C15.6094 20.6719 15.0469 21.0938 14.3438 21.0938H9.84375C8.71875 21.0938 7.73438 20.1094 7.73438 18.9844V15.1875C7.73438 12.9375 8.85938 10.8281 10.8281 9.70313C13.7812 8.01563 17.0156 7.03125 20.5312 7.03125H28.8281C32.2031 7.03125 35.5781 8.01563 38.5312 9.70313C40.3594 10.8281 41.625 12.9375 41.625 15.1875V18.9844C41.4844 20.1094 40.5 21.0938 39.375 21.0938ZM34.4531 19.5469C34.5938 19.6875 34.7344 19.6875 34.875 19.6875H39.375C39.7969 19.6875 40.0781 19.4062 40.0781 18.9844V15.1875C40.0781 13.5 39.0938 11.8125 37.6875 10.9688C35.0156 9.28125 31.9219 8.4375 28.6875 8.4375H20.3906C17.2969 8.4375 14.2031 9.28125 11.3906 10.9688C9.98438 11.8125 9 13.5 9 15.1875V18.9844C9.14062 19.4062 9.42188 19.6875 9.84375 19.6875H14.3438C14.4844 19.6875 14.625 19.6875 14.7656 19.5469V14.7656C14.7656 13.6406 15.75 12.6562 16.875 12.6562H32.3438C33.4688 12.6562 34.4531 13.6406 34.4531 14.7656V19.5469ZM5.625 30.9375C4.5 30.9375 3.51562 29.9531 3.51562 28.8281C3.51562 27.7031 4.5 26.7188 5.625 26.7188C6.04688 26.7188 6.32812 27 6.32812 27.4219C6.32812 27.8438 6.04688 28.125 5.625 28.125C5.20312 28.125 4.92188 28.4062 4.92188 28.8281C4.92188 29.25 5.20312 29.5312 5.625 29.5312C6.04688 29.5312 6.32812 29.8125 6.32812 30.2344C6.32812 30.6562 6.04688 30.9375 5.625 30.9375Z" fill="white"/>
<path d="M5.625 33.75C4.5 33.75 3.51562 32.7656 3.51562 31.6406C3.51562 30.5156 4.5 29.5312 5.625 29.5312C6.04688 29.5312 6.32812 29.8125 6.32812 30.2344C6.32812 30.6562 6.04688 30.9375 5.625 30.9375C5.20312 30.9375 4.92188 31.2188 4.92188 31.6406C4.92188 32.0625 5.20312 32.3438 5.625 32.3438C6.04688 32.3438 6.32812 32.625 6.32812 33.0469C6.32812 33.4688 6.04688 33.75 5.625 33.75ZM5.625 28.125C4.5 28.125 3.51562 27.1406 3.51562 26.0156C3.51562 24.8906 4.5 23.9062 5.625 23.9062C6.04688 23.9062 6.32812 24.1875 6.32812 24.6094C6.32812 25.0312 6.04688 25.3125 5.625 25.3125C5.20312 25.3125 4.92188 25.5938 4.92188 26.0156C4.92188 26.4375 5.20312 26.7188 5.625 26.7188C6.04688 26.7188 6.32812 27 6.32812 27.4219C6.32812 27.8438 6.04688 28.125 5.625 28.125Z" fill="white"/>
<path d="M5.625 25.3125C4.5 25.3125 3.51562 24.3281 3.51562 23.2031C3.51562 22.0781 4.5 21.0938 5.625 21.0938C6.04688 21.0938 6.32812 21.375 6.32812 21.7969C6.32812 22.2188 6.04688 22.5 5.625 22.5C5.20312 22.5 4.92188 22.7812 4.92188 23.2031C4.92188 23.625 5.20312 23.9062 5.625 23.9062C6.04688 23.9062 6.32812 24.1875 6.32812 24.6094C6.32812 25.0312 6.04688 25.3125 5.625 25.3125Z" fill="white"/>
<path d="M5.625 22.5C5.20312 22.5 4.92188 22.2188 4.92188 21.7969V20.3906C4.92188 19.2656 5.90625 18.2812 7.03125 18.2812H8.4375C8.85938 18.2812 9.14062 18.5625 9.14062 18.9844C9.14062 19.4062 8.85938 19.6875 8.4375 19.6875H7.03125C6.60938 19.6875 6.32812 19.9688 6.32812 20.3906V21.7969C6.32812 22.2188 6.04688 22.5 5.625 22.5Z" fill="white"/>
</svg>
